<svg width="24" height="24" viewBox="0 0 24 24" fill="none" xmlns="http://www.w3.org/2000/svg">
<path fill-rule="evenodd" clip-rule="evenodd" d="M12.0004 5.45461C11.1408 5.45461 10.2896 5.62392 9.49541 5.95288C8.70125 6.28183 7.97965 6.76399 7.37182 7.37182C6.76399 7.97965 6.28183 8.70125 5.95288 9.49541C5.62392 10.2896 5.45461 11.1408 5.45461 12.0004C5.45461 12.86 5.62392 13.7111 5.95288 14.5053C6.28183 15.2995 6.76399 16.0211 7.37182 16.6289C7.97965 17.2367 8.70125 17.7189 9.49541 18.0479C10.2896 18.3768 11.1408 18.5461 12.0004 18.5461C13.7364 18.5461 15.4013 17.8565 16.6289 16.6289C17.8565 15.4013 18.5461 13.7364 18.5461 12.0004C18.5461 10.2643 17.8565 8.59938 16.6289 7.37182C15.4013 6.14425 13.7364 5.45461 12.0004 5.45461ZM4 12.0004C4 7.58125 7.58198 4 12.0004 4C16.4187 4 20.0007 7.58198 20.0007 12.0004C20.0007 16.418 16.4187 20 12.0004 20C7.58198 20 4 16.418 4 11.9996V12.0004ZM12.9095 8.54566C12.9095 8.78678 12.8137 9.01802 12.6432 9.18851C12.4727 9.35901 12.2415 9.45479 12.0004 9.45479C11.7592 9.45479 11.528 9.35901 11.3575 9.18851C11.187 9.01802 11.0912 8.78678 11.0912 8.54566C11.0912 8.30454 11.187 8.0733 11.3575 7.90281C11.528 7.73231 11.7592 7.63653 12.0004 7.63653C12.2415 7.63653 12.4727 7.73231 12.6432 7.90281C12.8137 8.0733 12.9095 8.30454 12.9095 8.54566ZM11.2731 10.5458C11.0802 10.5458 10.8952 10.6224 10.7588 10.7588C10.6224 10.8952 10.5458 11.0802 10.5458 11.2731C10.5458 11.466 10.6224 11.6509 10.7588 11.7873C10.8952 11.9237 11.0802 12.0004 11.2731 12.0004V15.6369C11.2731 15.8298 11.3497 16.0148 11.4861 16.1512C11.6225 16.2876 11.8075 16.3642 12.0004 16.3642C12.1933 16.3642 12.3783 16.2876 12.5146 16.1512C12.651 16.0148 12.7277 15.8298 12.7277 15.6369V11.2731C12.7277 11.0802 12.651 10.8952 12.5146 10.7588C12.3783 10.6224 12.1933 10.5458 12.0004 10.5458H11.2731Z" fill="#8993A0"/>
</svg>
